<mxfile host="app.diagrams.net" modified="2023-04-29T18:50:01.004Z" agent="Mozilla/5.0 (Macintosh; Intel Mac OS X 10_15_7) AppleWebKit/537.36 (KHTML, like Gecko) Chrome/112.0.0.0 Safari/537.36" version="21.2.1" etag="oI2rK2g9MVRD_xZBMC2F" type="github">
  <diagram name="Page-1" id="aatV2VDIMrSUz6APNysn">
    <mxGraphModel>
      <root>
        <mxCell id="0" />
        <mxCell id="1" parent="0" />
      </root>
    </mxGraphModel>
  </diagram>
</mxfile>
